<svg width="144" height="144" viewBox="0 0 144 144" fill="none" xmlns="http://www.w3.org/2000/svg">
<g clip-path="url(#clip0_201_2)">
<path d="M144 0H0V144H144V0Z" fill="#F15D22"/>
<path d="M83.6438 20.9194C74.6044 20.9194 67.2469 28.2431 67.2469 37.2431V67.2187C68.6926 66.645 70.2676 66.3187 71.9157 66.3187C73.5638 66.3187 75.1388 66.645 76.5844 67.2187V37.2431C76.5844 33.3675 79.7513 30.2175 83.6438 30.2175C87.5363 30.2175 90.7032 33.3675 90.7032 37.2431V44.0719H100.041V37.2431C100.041 28.2431 92.6832 20.9194 83.6438 20.9194Z" fill="white"/>
<path d="M79.5262 78.8738C79.5262 83.0588 76.1174 86.4506 71.9156 86.4506C67.7137 86.4506 64.3049 83.0588 64.3049 78.8738C64.3049 74.6888 67.7137 71.2969 71.9156 71.2969C76.1174 71.2969 79.5262 74.6888 79.5262 78.8738Z" fill="white"/>
<path d="M36.7312 60.57C27.6919 60.57 20.3344 67.8938 20.3344 76.8938V105.885C21.78 105.311 23.355 104.985 25.0031 104.985C26.6512 104.985 28.2262 105.311 29.6718 105.885V76.8938C29.6718 73.0181 32.8387 69.8681 36.7312 69.8681C40.6237 69.8681 43.7906 73.0181 43.7906 76.8938V83.7225H53.1281V76.8938C53.1281 67.8938 45.7706 60.57 36.7312 60.57Z" fill="white"/>
<path d="M32.5688 117.54C32.5688 121.697 29.1825 125.072 25.0031 125.072C20.8238 125.072 17.4375 121.702 17.4375 117.54C17.4375 113.377 20.8238 110.008 25.0031 110.008C29.1825 110.008 32.5688 113.377 32.5688 117.54Z" fill="white"/>
<path d="M118.834 52.7962C118.187 52.7962 117.529 52.7456 116.887 52.65C115.942 52.5037 115.031 52.2506 114.165 51.9019V69.0188C114.165 72.855 110.998 75.9712 107.106 75.9712C103.213 75.9712 100.046 72.8494 100.046 69.0188V49.6631H90.7087V69.0188C90.7087 77.9231 98.0662 85.1738 107.106 85.1738C116.145 85.1738 123.502 77.9288 123.502 69.0188V51.9019C122.034 52.4869 120.454 52.7962 118.834 52.7962Z" fill="white"/>
<path d="M126.411 39.0375C127.204 44.2012 122.805 48.5775 117.619 47.79C114.39 47.3006 111.746 44.6681 111.251 41.4562C110.453 36.2925 114.857 31.9106 120.043 32.7038C123.272 33.1988 125.916 35.8256 126.411 39.0431V39.0375Z" fill="white"/>
<path d="M71.9156 91.4287C70.2675 91.4287 68.6925 91.1025 67.2469 90.5287V108.467C67.2469 112.342 64.08 115.492 60.1875 115.492C56.295 115.492 53.1281 112.342 53.1281 108.467V88.9031H43.7906V108.467C43.7906 117.467 51.1482 124.791 60.1875 124.791C69.2269 124.791 76.5844 117.467 76.5844 108.467V90.5287C75.1388 91.1025 73.5638 91.4287 71.9156 91.4287Z" fill="white"/>
</g>
<defs>
<clipPath id="clip0_201_2">
<rect width="144" height="144" fill="white"/>
</clipPath>
</defs>
</svg>
